<svg width="24" height="24" viewBox="0 0 24 24" fill="none" xmlns="http://www.w3.org/2000/svg">
<g id="blur_linear" clip-path="url(#clip0_1593_5262)">
<path id="Vector" d="M4.92857 19C5.99571 19 6.85714 18.1473 6.85714 17.0909C6.85714 16.0345 5.99571 15.1818 4.92857 15.1818C3.86143 15.1818 3 16.0345 3 17.0909C3 18.1473 3.86143 19 4.92857 19ZM10.0714 13.2727C10.7786 13.2727 11.3571 12.7 11.3571 12C11.3571 11.3 10.7786 10.7273 10.0714 10.7273C9.36429 10.7273 8.78571 11.3 8.78571 12C8.78571 12.7 9.36429 13.2727 10.0714 13.2727ZM10.0714 8.18182C10.7786 8.18182 11.3571 7.60909 11.3571 6.90909C11.3571 6.20909 10.7786 5.63636 10.0714 5.63636C9.36429 5.63636 8.78571 6.20909 8.78571 6.90909C8.78571 7.60909 9.36429 8.18182 10.0714 8.18182ZM4.92857 8.81818C5.99571 8.81818 6.85714 7.96545 6.85714 6.90909C6.85714 5.85273 5.99571 5 4.92857 5C3.86143 5 3 5.85273 3 6.90909C3 7.96545 3.86143 8.81818 4.92857 8.81818ZM4.92857 13.9091C5.99571 13.9091 6.85714 13.0564 6.85714 12C6.85714 10.9436 5.99571 10.0909 4.92857 10.0909C3.86143 10.0909 3 10.9436 3 12C3 13.0564 3.86143 13.9091 4.92857 13.9091ZM10.0714 18.3636C10.7786 18.3636 11.3571 17.7909 11.3571 17.0909C11.3571 16.3909 10.7786 15.8182 10.0714 15.8182C9.36429 15.8182 8.78571 16.3909 8.78571 17.0909C8.78571 17.7909 9.36429 18.3636 10.0714 18.3636ZM20.3571 17.7273C20.7171 17.7273 21 17.4473 21 17.0909C21 16.7345 20.7171 16.4545 20.3571 16.4545C19.9971 16.4545 19.7143 16.7345 19.7143 17.0909C19.7143 17.4473 19.9971 17.7273 20.3571 17.7273ZM20.3571 7.54545C20.7171 7.54545 21 7.26545 21 6.90909C21 6.55273 20.7171 6.27273 20.3571 6.27273C19.9971 6.27273 19.7143 6.55273 19.7143 6.90909C19.7143 7.26545 19.9971 7.54545 20.3571 7.54545ZM20.3571 12.6364C20.7171 12.6364 21 12.3564 21 12C21 11.6436 20.7171 11.3636 20.3571 11.3636C19.9971 11.3636 19.7143 11.6436 19.7143 12C19.7143 12.3564 19.9971 12.6364 20.3571 12.6364ZM15.2143 8.18182C15.9214 8.18182 16.5 7.60909 16.5 6.90909C16.5 6.20909 15.9214 5.63636 15.2143 5.63636C14.5071 5.63636 13.9286 6.20909 13.9286 6.90909C13.9286 7.60909 14.5071 8.18182 15.2143 8.18182ZM15.2143 13.2727C15.9214 13.2727 16.5 12.7 16.5 12C16.5 11.3 15.9214 10.7273 15.2143 10.7273C14.5071 10.7273 13.9286 11.3 13.9286 12C13.9286 12.7 14.5071 13.2727 15.2143 13.2727ZM15.2143 18.3636C15.9214 18.3636 16.5 17.7909 16.5 17.0909C16.5 16.3909 15.9214 15.8182 15.2143 15.8182C14.5071 15.8182 13.9286 16.3909 13.9286 17.0909C13.9286 17.7909 14.5071 18.3636 15.2143 18.3636Z" fill="#606971"/>
</g>
<defs>
<clipPath id="clip0_1593_5262">
<rect width="24" height="24" fill="white"/>
</clipPath>
</defs>
</svg>
