<svg width="52" height="52" viewBox="0 0 52 52" fill="none" xmlns="http://www.w3.org/2000/svg">
<g id="Group">
<path id="Vector" d="M30.6112 6.875H11.125C8.7875 6.875 6.875 8.7875 6.875 11.125V40.875C6.875 43.2125 8.7875 45.125 11.125 45.125H40.875C43.2125 45.125 45.125 43.2125 45.125 40.875V21.3888C45.125 20.2625 44.6787 19.1788 43.8713 18.3925L33.6075 8.12875C32.8212 7.32125 31.7375 6.875 30.6112 6.875ZM17.5 32.375H34.5C35.6688 32.375 36.625 33.3312 36.625 34.5C36.625 35.6688 35.6688 36.625 34.5 36.625H17.5C16.3313 36.625 15.375 35.6688 15.375 34.5C15.375 33.3312 16.3313 32.375 17.5 32.375ZM17.5 23.875H34.5C35.6688 23.875 36.625 24.8312 36.625 26C36.625 27.1688 35.6688 28.125 34.5 28.125H17.5C16.3313 28.125 15.375 27.1688 15.375 26C15.375 24.8312 16.3313 23.875 17.5 23.875ZM17.5 15.375H28.125C29.2938 15.375 30.25 16.3313 30.25 17.5C30.25 18.6687 29.2938 19.625 28.125 19.625H17.5C16.3313 19.625 15.375 18.6687 15.375 17.5C15.375 16.3313 16.3313 15.375 17.5 15.375Z" fill="#606971"/>
</g>
</svg>
