<svg width="20" height="20" viewBox="0 0 20 20" fill="none" xmlns="http://www.w3.org/2000/svg">
<g id="full-screen">
<g id="Vector">
<path fill-rule="evenodd" clip-rule="evenodd" d="M15.8334 5.00004H4.16675C3.70651 5.00004 3.33341 5.37314 3.33341 5.83337V14.1667C3.33341 14.6269 3.70651 15 4.16675 15H15.8334C16.2937 15 16.6667 14.6269 16.6667 14.1667V5.83337C16.6667 5.37314 16.2937 5.00004 15.8334 5.00004ZM4.16675 3.33337C2.78604 3.33337 1.66675 4.45266 1.66675 5.83337V14.1667C1.66675 15.5474 2.78604 16.6667 4.16675 16.6667H15.8334C17.2141 16.6667 18.3334 15.5474 18.3334 14.1667V5.83337C18.3334 4.45266 17.2141 3.33337 15.8334 3.33337H4.16675Z" fill="#239B8B"/>
<path fill-rule="evenodd" clip-rule="evenodd" d="M5.83342 8.33337C5.83342 7.87314 6.20651 7.50004 6.66675 7.50004H13.3334C13.7937 7.50004 14.1667 7.87314 14.1667 8.33337C14.1667 8.79361 13.7937 9.16671 13.3334 9.16671H6.66675C6.20651 9.16671 5.83342 8.79361 5.83342 8.33337Z" fill="#239B8B"/>
<path fill-rule="evenodd" clip-rule="evenodd" d="M6.66675 10.8334C6.66675 10.3731 7.03984 10 7.50008 10H12.5001C12.9603 10 13.3334 10.3731 13.3334 10.8334C13.3334 11.2936 12.9603 11.6667 12.5001 11.6667H7.50008C7.03984 11.6667 6.66675 11.2936 6.66675 10.8334Z" fill="#239B8B"/>
</g>
</g>
</svg>
