<svg width="20" height="17" viewBox="0 0 20 17" fill="none" xmlns="http://www.w3.org/2000/svg">
<g id="Group">
<g id="Group_2">
<path id="Vector" d="M3.33325 1.99992H16.6666C17.1249 1.99992 17.4999 2.37492 17.4999 2.83325V6.16658H19.1666V1.99992C19.1666 1.08325 18.4166 0.333252 17.4999 0.333252H2.49992C1.58325 0.333252 0.833252 1.08325 0.833252 1.99992V11.9999C0.833252 12.9166 1.58325 13.6666 2.49992 13.6666H9.99992V11.9999H3.33325C2.87492 11.9999 2.49992 11.6249 2.49992 11.1666V2.83325C2.49992 2.37492 2.87492 1.99992 3.33325 1.99992Z" fill="#606971"/>
<path id="Vector_2" d="M12.5 6.99984L7.5 3.6665V10.3332L12.5 6.99984Z" fill="#606971"/>
<path id="Vector_3" d="M18.9249 12.3583C18.9499 12.1166 18.9583 11.8749 18.9333 11.6416L19.8249 10.9333C19.9083 10.8666 19.9249 10.7583 19.8749 10.6666L19.0166 9.17492C18.9666 9.08325 18.8583 9.04992 18.7583 9.08325L17.6916 9.49992C17.4999 9.35825 17.2916 9.24159 17.0666 9.14992L16.8999 8.01659C16.8833 7.90825 16.7999 7.83325 16.6916 7.83325H14.9666C14.8666 7.83325 14.7749 7.90825 14.7583 8.00825L14.5916 9.14158C14.3749 9.23325 14.1666 9.35825 13.9749 9.49159L12.9083 9.07492C12.8083 9.03325 12.6999 9.07492 12.6499 9.16659L11.7916 10.6583C11.7416 10.7499 11.7583 10.8583 11.8416 10.9249L12.7333 11.6416C12.7083 11.8833 12.6999 12.1249 12.7249 12.3583L11.8333 13.0666C11.7499 13.1333 11.7333 13.2416 11.7833 13.3333L12.6416 14.8249C12.6916 14.9166 12.7999 14.9499 12.8999 14.9166L13.9583 14.4999C14.1499 14.6416 14.3583 14.7583 14.5833 14.8499L14.7499 15.9833C14.7666 16.0833 14.8499 16.1583 14.9583 16.1583H16.6833C16.7833 16.1583 16.8749 16.0833 16.8916 15.9833L17.0583 14.8499C17.2749 14.7583 17.4833 14.6333 17.6749 14.4999L18.7416 14.9166C18.8416 14.9583 18.9499 14.9166 18.9999 14.8249L19.8583 13.3333C19.9083 13.2416 19.8916 13.1333 19.8083 13.0666L18.9249 12.3583ZM15.8333 13.2499C15.1416 13.2499 14.5833 12.6916 14.5833 11.9999C14.5833 11.3083 15.1416 10.7499 15.8333 10.7499C16.5249 10.7499 17.0833 11.3083 17.0833 11.9999C17.0833 12.6916 16.5249 13.2499 15.8333 13.2499Z" fill="#606971"/>
</g>
</g>
</svg>
