<svg width="20" height="20" viewBox="0 0 20 20" fill="none" xmlns="http://www.w3.org/2000/svg">
<g id="lower-third">
<g id="Vector">
<path fill-rule="evenodd" clip-rule="evenodd" d="M15.8334 4.99992H4.16675C3.70651 4.99992 3.33341 5.37301 3.33341 5.83325V14.1666C3.33341 14.6268 3.70651 14.9999 4.16675 14.9999H15.8334C16.2937 14.9999 16.6667 14.6268 16.6667 14.1666V5.83325C16.6667 5.37301 16.2937 4.99992 15.8334 4.99992ZM4.16675 3.33325C2.78604 3.33325 1.66675 4.45254 1.66675 5.83325V14.1666C1.66675 15.5473 2.78604 16.6666 4.16675 16.6666H15.8334C17.2141 16.6666 18.3334 15.5473 18.3334 14.1666V5.83325C18.3334 4.45254 17.2141 3.33325 15.8334 3.33325H4.16675Z" fill="#606971"/>
<path fill-rule="evenodd" clip-rule="evenodd" d="M4.16675 10.8333C4.16675 10.373 4.53984 9.99992 5.00008 9.99992H10.0001C10.4603 9.99992 10.8334 10.373 10.8334 10.8333C10.8334 11.2935 10.4603 11.6666 10.0001 11.6666H5.00008C4.53984 11.6666 4.16675 11.2935 4.16675 10.8333Z" fill="#606971"/>
<path fill-rule="evenodd" clip-rule="evenodd" d="M4.16675 13.3333C4.16675 12.873 4.53984 12.4999 5.00008 12.4999H8.33342C8.79365 12.4999 9.16675 12.873 9.16675 13.3333C9.16675 13.7935 8.79365 14.1666 8.33342 14.1666H5.00008C4.53984 14.1666 4.16675 13.7935 4.16675 13.3333Z" fill="#606971"/>
</g>
</g>
</svg>
