<svg width="24" height="24" viewBox="0 0 24 24" fill="none" xmlns="http://www.w3.org/2000/svg">
<path fill-rule="evenodd" clip-rule="evenodd" d="M6 4C3.79086 4 2 5.79086 2 8V16C2 18.2091 3.79086 20 6 20H18C20.2091 20 22 18.2091 22 16V8C22 5.79086 20.2091 4 18 4H6ZM8.85714 9.8C8.38286 9.8 8 9.398 8 8.9C8 8.402 8.38286 8 8.85714 8H15.1429C15.6171 8 16 8.402 16 8.9C16 9.398 15.6171 9.8 15.1429 9.8H12.8571V15.1C12.8571 15.598 12.4743 16 12 16C11.5257 16 11.1429 15.598 11.1429 15.1V9.8H8.85714Z" fill="#606971"/>
</svg>
