<svg width="24" height="24" viewBox="0 0 24 24" fill="none" xmlns="http://www.w3.org/2000/svg">
<path d="M8 8.9C8 9.398 8.38286 9.8 8.85714 9.8H11.1429V15.1C11.1429 15.598 11.5257 16 12 16C12.4743 16 12.8571 15.598 12.8571 15.1V9.8H15.1429C15.6171 9.8 16 9.398 16 8.9C16 8.402 15.6171 8 15.1429 8H8.85714C8.38286 8 8 8.402 8 8.9Z" fill="#606971"/>
<path fill-rule="evenodd" clip-rule="evenodd" d="M18 6H6C4.89543 6 4 6.89543 4 8V16C4 17.1046 4.89543 18 6 18H18C19.1046 18 20 17.1046 20 16V8C20 6.89543 19.1046 6 18 6ZM6 4C3.79086 4 2 5.79086 2 8V16C2 18.2091 3.79086 20 6 20H18C20.2091 20 22 18.2091 22 16V8C22 5.79086 20.2091 4 18 4H6Z" fill="#606971"/>
</svg>
